<?xml version="1.0" standalone="no"?>
<!DOCTYPE svg PUBLIC "-//W3C//DTD SVG 20010904//EN"
 "http://www.w3.org/TR/2001/REC-SVG-20010904/DTD/svg10.dtd">
<svg version="1.0" xmlns="http://www.w3.org/2000/svg"
 width="104.000000pt" height="106.000000pt" viewBox="0 0 104.000000 106.000000"
 preserveAspectRatio="xMidYMid meet">
<metadata>
Created by potrace 1.16, written by Peter Selinger 2001-2019
</metadata>
<g transform="translate(0.000000,106.000000) scale(0.100000,-0.100000)"
fill="#000000" stroke="none">
<path d="M445 989 c-84 -12 -195 -69 -260 -134 -229 -229 -164 -617 127 -759
236 -116 517 -20 632 216 67 136 67 280 0 416 -92 187 -290 291 -499 261z
m267 -71 c92 -46 167 -122 211 -215 30 -64 32 -74 32 -183 0 -109 -2 -119 -32
-183 -44 -93 -119 -169 -212 -215 -73 -36 -77 -37 -191 -37 -114 0 -118 1
-191 37 -93 46 -168 122 -212 215 -30 64 -32 74 -32 183 0 109 2 119 32 182
54 114 146 197 268 241 38 13 74 17 151 15 93 -3 106 -6 176 -40z"/>
<path d="M456 909 c-205 -34 -359 -244 -326 -445 35 -214 240 -367 448 -334
211 35 365 241 332 446 -36 218 -241 369 -454 333z m49 -174 c14 -13 25 -29
25 -34 0 -6 15 -13 34 -16 27 -6 38 -2 59 19 41 41 100 47 113 11 10 -24 -5
-65 -33 -91 -34 -32 -26 -81 17 -106 32 -18 46 -54 36 -93 -8 -33 -27 -32 -54
4 l-21 29 -50 -49 c-28 -27 -62 -51 -76 -55 -22 -5 -25 -10 -20 -33 8 -39 -28
-83 -64 -79 -31 4 -41 38 -16 58 24 20 18 40 -11 40 -36 0 -104 68 -104 105 0
15 -3 25 -7 23 -5 -2 -20 -10 -35 -17 -33 -17 -58 -8 -58 20 0 35 28 59 70 59
33 0 39 4 55 40 10 23 36 56 57 75 l38 35 -30 22 c-47 34 -38 55 23 57 17 1
37 -9 52 -24z"/>
</g>
</svg>
