<?xml version="1.0" standalone="no"?>
<!DOCTYPE svg PUBLIC "-//W3C//DTD SVG 20010904//EN"
 "http://www.w3.org/TR/2001/REC-SVG-20010904/DTD/svg10.dtd">
<svg version="1.0" xmlns="http://www.w3.org/2000/svg"
 width="400.000000pt" height="400.000000pt" viewBox="0 0 400.000000 400.000000"
 preserveAspectRatio="xMidYMid meet">

<g transform="translate(0.000000,400.000000) scale(0.100000,-0.100000)"
fill="#000000" stroke="none">
<path d="M555 2470 c-225 -41 -406 -197 -482 -417 -23 -67 -27 -95 -27 -196
-1 -94 2 -120 14 -127 20 -13 46 -7 42 9 -1 6 -5 44 -8 84 -22 273 177 534
451 592 87 18 142 18 225 1 138 -30 256 -105 350 -225 30 -39 61 -70 69 -71 9
0 12 -9 9 -32 -3 -17 2 -57 10 -87 8 -31 15 -94 15 -141 0 -154 -54 -283 -167
-396 -155 -155 -369 -208 -571 -139 -98 32 -136 54 -198 114 -63 59 -88 111
-95 186 -5 72 11 111 60 148 84 63 165 85 358 97 95 7 170 17 218 31 l73 22
-25 26 c-27 29 -50 80 -40 90 4 3 9 0 11 -7 11 -29 56 -71 88 -82 42 -14 93
-2 156 39 43 27 97 87 87 97 -3 2 -25 -5 -49 -16 -24 -11 -50 -20 -56 -20 -26
0 -12 18 27 35 26 12 40 24 38 34 -5 25 -99 51 -221 60 -234 19 -409 -25 -548
-140 l-46 -37 25 63 c26 65 38 75 93 75 52 0 119 31 152 71 40 46 64 49 178
20 41 -10 115 -21 165 -25 50 -4 105 -11 123 -16 l33 -9 -24 32 c-14 18 -56
55 -95 83 -205 148 -483 133 -675 -36 -91 -79 -160 -214 -174 -338 -8 -75 3
-175 19 -169 19 5 47 69 47 105 0 17 5 32 11 32 6 0 24 9 40 21 16 11 29 19
29 17 0 -11 -92 -186 -107 -205 -10 -12 -35 -31 -56 -41 l-38 -18 42 -85 c59
-116 157 -213 272 -268 107 -51 171 -65 287 -64 265 3 494 172 576 427 33 102
37 246 10 346 -56 205 -221 374 -426 434 -67 20 -207 28 -275 16z m451 -332
c9 -9 14 -24 11 -32 -8 -20 -53 -21 -61 -1 -12 33 -272 8 -393 -37 -84 -31
-175 -91 -233 -154 -61 -68 -65 -57 -7 23 84 113 177 170 342 209 87 20 319
15 341 -8z m-696 -152 c0 -2 -8 -10 -17 -17 -16 -13 -17 -12 -4 4 13 16 21 21
21 13z"/>
<path d="M1864 2274 c-37 -18 -54 -51 -54 -105 0 -59 15 -78 88 -111 74 -34
82 -41 82 -80 0 -59 -83 -63 -98 -5 -7 28 -12 32 -43 32 -33 0 -34 -1 -33 -39
2 -60 37 -86 115 -86 65 0 112 18 129 49 5 11 10 42 10 69 0 58 -18 79 -103
116 -65 29 -87 60 -68 95 8 14 21 21 42 21 24 0 32 -6 40 -30 9 -25 16 -30 45
-30 28 0 34 4 34 20 0 80 -102 126 -186 84z"/>
<path d="M1420 2080 l0 -200 40 0 40 0 0 90 0 90 70 0 70 0 0 30 0 30 -70 0
-70 0 0 50 0 50 73 0 72 0 0 30 0 30 -112 0 -113 0 0 -200z"/>
<path d="M1680 2080 l0 -200 40 0 40 0 0 200 0 200 -40 0 -40 0 0 -200z"/>
<path d="M2100 2080 l0 -200 40 0 40 0 0 90 0 90 50 0 50 0 0 -90 0 -90 35 0
35 0 0 200 0 200 -35 0 -35 0 0 -75 0 -75 -50 0 -50 0 0 75 0 75 -40 0 -40 0
0 -200z"/>
<path d="M2400 2273 c0 -5 14 -92 32 -195 l33 -188 41 0 41 0 22 134 c11 73
21 136 21 140 0 3 4 6 8 6 4 0 16 -57 26 -127 10 -71 21 -134 23 -140 3 -7 22
-13 43 -13 44 0 39 -15 80 220 11 63 23 127 26 143 5 25 3 27 -28 27 l-34 0
-19 -132 c-18 -136 -29 -177 -38 -148 -3 8 -13 65 -22 125 -24 161 -22 155
-59 155 l-32 0 -18 -112 c-26 -168 -28 -178 -36 -178 -4 0 -15 55 -24 123 -24
170 -23 167 -57 167 -16 0 -29 -3 -29 -7z"/>
<path d="M2877 2213 c-9 -38 -32 -125 -50 -195 l-34 -128 37 0 c36 0 38 2 44
40 l6 40 60 0 60 0 6 -40 c6 -38 8 -40 44 -40 l38 0 -44 168 c-25 92 -47 179
-51 195 -5 25 -9 27 -52 27 l-47 0 -17 -67z m86 -78 c24 -106 24 -105 -23
-105 -25 0 -40 5 -40 12 0 27 34 168 40 168 4 0 14 -34 23 -75z"/>
<path d="M3050 2250 c0 -29 2 -30 45 -30 l45 0 0 -165 0 -165 35 0 35 0 0 165
0 165 40 0 c38 0 40 2 40 30 l0 30 -120 0 -120 0 0 -30z"/>
<path d="M3357 2260 c-17 -14 -30 -38 -38 -74 -14 -64 -8 -209 11 -249 18 -37
58 -57 114 -57 64 0 106 38 113 103 l6 47 -37 0 c-33 0 -36 -3 -36 -28 0 -42
-27 -74 -58 -70 -43 5 -53 39 -50 160 3 95 5 110 25 130 31 31 69 13 79 -37 6
-32 9 -35 40 -35 28 0 34 4 34 20 0 33 -27 88 -48 99 -36 19 -126 14 -155 -9z"/>
<path d="M3610 2085 l0 -195 35 0 34 0 3 88 3 87 50 0 50 0 3 -87 3 -88 34 0
35 0 0 195 0 195 -35 0 -35 0 0 -81 0 -80 -52 3 -53 3 -3 78 -3 77 -34 0 -35
0 0 -195z"/>
<path d="M1145 1999 c-39 -41 -120 -79 -168 -79 -45 0 -154 -44 -252 -101
l-70 -40 -17 21 c-25 30 -75 39 -164 29 -127 -14 -223 -71 -243 -146 -11 -40
0 -116 23 -161 23 -45 90 -106 153 -140 310 -164 692 7 779 351 17 65 15 229
-3 275 l-9 23 -29 -32z m-16 -160 c42 -15 34 -33 -15 -37 -37 -2 -38 -1 -20
13 11 8 14 15 8 15 -7 0 -12 5 -12 10 0 12 0 12 39 -1z m11 -75 c21 -24 -8
-48 -43 -35 -26 10 -35 30 -20 44 12 13 50 7 63 -9z m10 -82 c-1 -24 -17 -31
-53 -21 -44 12 -51 22 -37 49 l11 20 39 -20 c22 -11 40 -24 40 -28z m-664 6
l8 -33 3 33 c3 25 9 32 21 30 14 -3 17 -16 17 -73 0 -65 -2 -70 -22 -73 -18
-3 -24 4 -32 30 l-9 33 -1 -32 c-1 -26 -5 -33 -21 -33 -18 0 -20 7 -20 75 0
72 1 75 24 75 18 0 25 -7 32 -32z m148 16 c21 -21 21 -97 0 -118 -18 -19 -55
-21 -72 -4 -16 16 -16 110 0 126 17 17 54 15 72 -4z m101 4 c2 -7 10 -35 17
-63 l14 -50 15 60 c12 53 17 60 40 63 23 3 27 -1 38 -50 6 -29 14 -63 17 -75
8 -29 -22 -32 -42 -5 -13 16 -15 16 -25 0 -6 -12 -22 -18 -44 -18 -22 0 -38 6
-44 18 -10 16 -12 16 -25 0 -7 -10 -21 -18 -30 -18 -12 0 -16 6 -12 18 2 9 10
43 17 75 11 50 15 57 36 57 13 0 25 -6 28 -12z m365 -78 c0 -5 -4 -10 -10 -10
-5 0 -10 5 -10 10 0 6 5 10 10 10 6 0 10 -4 10 -10z m-38 -17 c27 -24 22 -38
-7 -19 -34 22 -45 19 -16 -5 34 -28 18 -35 -23 -9 -35 21 -50 48 -21 37 8 -4
17 -2 20 3 9 15 26 12 47 -7z m-727 -56 c6 -1 9 -8 9 -14 -1 -7 2 -10 7 -7 10
6 39 -19 39 -35 0 -6 7 -8 15 -5 9 4 15 0 15 -9 0 -10 7 -13 20 -10 12 3 22
-1 26 -10 3 -9 12 -13 20 -10 9 3 14 -2 14 -13 0 -16 2 -16 10 -4 5 8 12 11
16 8 8 -9 -23 -58 -36 -58 -6 0 -10 7 -10 16 0 13 -3 14 -14 5 -19 -16 -28 1
-20 36 l7 28 -25 -22 c-30 -28 -42 -29 -35 -2 4 16 3 18 -8 9 -22 -19 -36 -3
-23 25 13 28 4 45 -14 27 -13 -13 -48 -16 -48 -4 0 4 6 15 12 23 11 12 11 12
-1 2 -33 -29 -42 -4 -14 36 15 22 17 22 23 7 3 -10 10 -18 15 -19z m670 13 c3
-5 -1 -10 -11 -10 -13 0 -14 -3 -4 -15 13 -16 35 -21 25 -6 -3 5 -1 12 5 16 5
3 10 -3 10 -15 0 -30 -28 -36 -53 -12 -17 17 -18 23 -7 36 14 18 26 20 35 6z
m-61 -26 c9 -3 14 -10 11 -14 -3 -5 4 -15 16 -24 12 -8 18 -19 14 -25 -9 -15
-64 29 -64 52 -1 19 0 20 23 11z m-9 -60 c16 -24 16 -26 -2 -39 -15 -12 -20
-12 -32 0 -12 12 -12 16 0 32 13 16 12 17 -3 4 -16 -12 -18 -11 -18 2 0 14 12
24 31 26 4 1 14 -11 24 -25z m-66 -21 c6 -21 11 -41 11 -45 0 -14 -23 -8 -35
9 -12 16 -12 14 -8 -10 8 -39 -10 -33 -41 13 -25 38 -17 59 9 23 12 -16 12
-14 8 10 -6 31 3 35 24 10 13 -17 14 -16 8 5 -4 12 -2 22 4 22 5 0 15 -17 20
-37z m-249 -13 c0 -5 -7 -10 -15 -10 -8 0 -15 -4 -15 -10 0 -5 7 -10 15 -10 8
0 15 -4 15 -10 0 -5 -7 -10 -15 -10 -7 0 -18 -8 -24 -17 -15 -27 -22 -10 -15
36 6 35 10 41 30 41 13 0 24 -4 24 -10z m120 -1 c0 -6 7 -8 15 -5 14 5 35 -27
35 -55 0 -19 -19 -8 -29 19 l-11 27 5 -32 c4 -30 -7 -45 -18 -25 -11 19 -17
82 -7 82 5 0 10 -5 10 -11z m-90 -54 c0 -19 -4 -35 -10 -35 -5 0 -10 16 -10
35 0 19 5 35 10 35 6 0 10 -16 10 -35z m60 25 c0 -5 -5 -10 -12 -10 -6 0 -4
-6 7 -13 10 -8 15 -19 11 -25 -9 -15 -46 -16 -46 -1 0 6 8 8 18 5 16 -6 16 -5
0 8 -24 18 -23 46 2 46 11 0 20 -4 20 -10z m-170 -36 c0 -8 -5 -12 -10 -9 -6
4 -8 11 -5 16 9 14 15 11 15 -7z"/>
<path d="M1090 1756 c0 -2 9 -6 20 -9 11 -3 20 -1 20 4 0 5 -9 9 -20 9 -11 0
-20 -2 -20 -4z"/>
<path d="M1075 1690 c3 -5 13 -10 21 -10 8 0 12 5 9 10 -3 6 -13 10 -21 10 -8
0 -12 -4 -9 -10z"/>
<path d="M590 1645 c0 -25 5 -45 10 -45 6 0 10 20 10 45 0 25 -4 45 -10 45 -5
0 -10 -20 -10 -45z"/>
<path d="M700 1646 c0 -9 5 -16 10 -16 6 0 10 4 10 9 0 6 -4 13 -10 16 -5 3
-10 -1 -10 -9z"/>
<path d="M810 1640 c0 -5 5 -10 10 -10 6 0 10 5 10 10 0 6 -4 10 -10 10 -5 0
-10 -4 -10 -10z"/>
<path d="M1422 1704 c3 -105 14 -124 70 -124 53 0 68 29 68 130 0 83 -1 90
-20 90 -18 0 -20 -7 -20 -79 0 -92 -5 -111 -30 -111 -25 0 -30 19 -30 111 0
74 -1 79 -21 79 -20 0 -21 -4 -17 -96z"/>
<path d="M1678 1789 c-12 -7 -18 -23 -18 -50 0 -37 3 -41 45 -61 35 -17 45
-27 43 -43 -4 -28 -44 -33 -53 -6 -7 24 -45 29 -45 6 0 -24 38 -55 68 -55 44
0 72 26 72 66 0 31 -5 36 -45 56 -34 17 -45 28 -45 45 0 27 27 31 45 7 6 -9
19 -15 28 -13 14 3 15 8 4 29 -14 28 -68 38 -99 19z"/>
<path d="M1968 1789 c-13 -7 -18 -22 -18 -50 0 -37 3 -41 45 -61 35 -17 45
-27 43 -43 -4 -28 -44 -33 -53 -6 -7 24 -45 29 -45 6 0 -24 38 -55 68 -55 44
0 72 26 72 66 0 31 -5 36 -45 56 -34 17 -45 28 -45 45 0 27 34 33 44 8 5 -15
46 -22 46 -7 0 4 -7 18 -16 30 -16 24 -65 30 -96 11z"/>
<path d="M2110 1693 l0 -108 57 1 c45 1 59 5 61 18 3 13 -5 16 -37 16 -39 0
-41 2 -41 30 0 28 3 30 35 30 24 0 35 5 35 15 0 11 -11 15 -36 15 -33 0 -35 2
-32 28 3 23 7 27 36 27 24 0 32 4 32 17 0 15 -9 18 -55 18 l-55 0 0 -107z"/>
<path d="M2267 1697 c-15 -58 -27 -107 -27 -109 0 -2 9 -4 19 -4 12 0 22 9 26
23 4 18 12 23 35 23 23 0 31 -5 35 -23 4 -14 14 -23 26 -23 22 0 22 7 -15 135
-19 67 -25 76 -47 79 -24 3 -26 -2 -52 -101z m63 39 c0 -7 3 -28 6 -45 6 -27
4 -31 -16 -31 -20 0 -22 4 -16 31 3 17 6 38 6 45 0 8 5 14 10 14 6 0 10 -6 10
-14z"/>
<path d="M2420 1692 c0 -101 1 -108 20 -108 17 0 20 7 20 48 l0 48 35 0 c24 0
35 5 35 15 0 11 -11 15 -36 15 -33 0 -35 2 -32 28 3 23 8 27 41 30 24 2 37 8
37 18 0 11 -14 14 -60 14 l-60 0 0 -108z"/>
<path d="M2577 1782 c-13 -14 -17 -38 -17 -90 0 -82 18 -112 68 -112 40 0 64
31 70 89 5 58 -2 93 -24 115 -21 22 -77 20 -97 -2z m77 -34 c18 -70 -3 -148
-38 -135 -13 5 -16 21 -16 75 0 38 3 72 7 75 14 15 41 6 47 -15z"/>
<path d="M2746 1785 c-32 -33 -32 -150 2 -187 20 -24 64 -23 93 1 21 17 24 28
24 89 0 55 -4 74 -19 91 -23 25 -77 28 -100 6z m77 -48 c12 -37 0 -117 -19
-124 -23 -8 -36 10 -41 59 -9 83 37 133 60 65z"/>
<path d="M2900 1692 l0 -107 57 5 c57 5 58 6 71 45 18 53 9 125 -19 148 -13
10 -38 17 -65 17 l-44 0 0 -108z m79 69 c19 -12 25 -91 9 -121 -8 -14 -21 -26
-31 -28 -15 -3 -17 6 -17 77 0 82 6 93 39 72z"/>
<path d="M3140 1696 c0 -95 2 -104 20 -109 18 -5 20 0 20 44 l0 49 35 0 c24 0
35 5 35 15 0 11 -11 15 -36 15 -33 0 -35 2 -32 28 3 23 8 27 41 30 24 2 37 8
37 18 0 11 -14 14 -60 14 l-60 0 0 -104z"/>
<path d="M3291 1723 c-36 -133 -36 -143 -13 -136 11 2 22 13 25 24 7 27 67 27
67 1 0 -25 7 -31 29 -25 18 5 17 10 -8 106 -25 93 -30 102 -53 105 -24 3 -27
-2 -47 -75z m62 -30 c6 -28 4 -33 -13 -33 -21 0 -26 23 -13 69 7 27 17 14 26
-36z"/>
<path d="M3456 1785 c-33 -33 -32 -150 1 -187 34 -38 113 -8 113 42 0 29 -38
27 -42 -2 -2 -15 -10 -23 -23 -23 -43 0 -45 145 -2 153 12 3 20 -4 24 -17 3
-12 13 -21 24 -21 23 0 24 18 3 48 -18 26 -74 30 -98 7z"/>
<path d="M3590 1781 c0 -14 5 -18 20 -14 18 5 19 -1 22 -88 3 -86 5 -94 23
-94 18 0 20 8 23 94 3 87 4 93 22 88 15 -4 20 0 20 14 0 17 -8 19 -65 19 -57
0 -65 -2 -65 -19z"/>
<path d="M3756 1784 c-9 -8 -16 -28 -16 -43 0 -30 18 -50 63 -69 21 -9 28 -18
25 -34 -4 -30 -38 -36 -45 -9 -8 31 -43 28 -43 -4 0 -61 119 -61 134 0 9 35
-8 62 -52 83 -20 9 -38 25 -40 35 -5 24 28 35 43 14 15 -20 45 -22 45 -4 0 41
-83 63 -114 31z"/>
<path d="M1590 1606 c0 -31 34 -29 38 2 3 17 -2 22 -17 22 -16 0 -21 -6 -21
-24z"/>
<path d="M1820 1607 c0 -14 6 -24 15 -24 9 0 15 10 15 24 0 14 -6 23 -15 23
-9 0 -15 -9 -15 -23z"/>
</g>
</svg>
