<?xml version="1.0" standalone="no"?>
<!DOCTYPE svg PUBLIC "-//W3C//DTD SVG 20010904//EN"
 "http://www.w3.org/TR/2001/REC-SVG-20010904/DTD/svg10.dtd">
<svg version="1.0" xmlns="http://www.w3.org/2000/svg"
 width="104.000000pt" height="106.000000pt" viewBox="0 0 104.000000 106.000000"
 preserveAspectRatio="xMidYMid meet">
<metadata>
Created by potrace 1.16, written by Peter Selinger 2001-2019
</metadata>
<g transform="translate(0.000000,106.000000) scale(0.100000,-0.100000)"
fill="#000000" stroke="none">
<path d="M405 989 c-84 -12 -195 -69 -260 -134 -229 -229 -164 -617 127 -759
236 -116 517 -20 632 216 67 136 67 280 0 416 -92 187 -290 291 -499 261z
m267 -71 c92 -46 167 -122 211 -215 30 -64 32 -74 32 -183 0 -109 -2 -119 -32
-183 -44 -93 -119 -169 -212 -215 -73 -36 -77 -37 -191 -37 -114 0 -118 1
-191 37 -93 46 -168 122 -212 215 -30 64 -32 74 -32 183 0 109 2 119 32 182
54 114 146 197 268 241 38 13 74 17 151 15 93 -3 106 -6 176 -40z"/>
<path d="M416 909 c-205 -34 -359 -244 -326 -445 35 -214 240 -367 448 -334
211 35 365 241 332 446 -36 218 -241 369 -454 333z m98 -148 c13 -11 48 -23
86 -29 142 -22 181 -63 85 -90 -28 -8 -58 -21 -68 -30 -15 -13 -20 -14 -26 -3
-10 15 -58 8 -103 -15 -26 -14 -28 -13 -28 7 0 19 -4 21 -37 16 -21 -3 -50 -9
-65 -12 -25 -7 -28 -5 -28 20 0 23 -3 27 -22 22 -13 -3 -37 -8 -54 -12 l-31
-7 0 56 c0 60 5 65 48 42 17 -8 49 -12 90 -9 57 3 67 7 88 33 28 35 37 37 65
11z m46 -213 c14 -17 28 -22 66 -22 27 0 61 4 75 8 25 7 26 6 26 -33 0 -41 0
-41 -32 -35 -27 5 -33 2 -38 -16 -4 -17 -10 -21 -24 -15 -37 16 -65 17 -73 5
-7 -11 -14 -11 -39 0 -17 7 -43 10 -57 7 -14 -2 -38 2 -53 9 -14 8 -34 14 -44
14 -22 0 -34 29 -16 40 7 5 44 14 81 20 37 7 72 18 79 26 16 19 28 18 49 -8z
m-121 -162 c6 -7 31 -16 54 -19 24 -3 57 -11 73 -17 28 -11 28 -12 10 -26 -11
-8 -27 -14 -37 -14 -9 0 -22 -7 -29 -15 -9 -11 -15 -12 -20 -5 -5 8 -19 7 -48
-3 -36 -12 -42 -13 -42 -1 0 17 -24 18 -51 2 -17 -11 -22 -10 -34 5 -9 13 -20
16 -38 12 -23 -6 -25 -4 -25 30 0 33 2 36 22 30 11 -4 40 -8 64 -8 33 -1 46 4
58 21 18 25 27 27 43 8z"/>
</g>
</svg>
