<?xml version="1.0" standalone="no"?>
<!DOCTYPE svg PUBLIC "-//W3C//DTD SVG 20010904//EN"
 "http://www.w3.org/TR/2001/REC-SVG-20010904/DTD/svg10.dtd">
<svg version="1.0" xmlns="http://www.w3.org/2000/svg"
 width="104.000000pt" height="106.000000pt" viewBox="0 0 104.000000 106.000000"
 preserveAspectRatio="xMidYMid meet">
<metadata>
Created by potrace 1.16, written by Peter Selinger 2001-2019
</metadata>
<g transform="translate(0.000000,106.000000) scale(0.100000,-0.100000)"
fill="#000000" stroke="none">
<path d="M445 1009 c-142 -20 -283 -126 -349 -261 -167 -341 115 -729 492
-677 149 20 288 122 356 261 67 136 67 280 0 416 -92 187 -290 291 -499 261z
m267 -71 c92 -46 167 -122 211 -215 30 -64 32 -74 32 -183 0 -109 -2 -119 -32
-183 -44 -93 -119 -169 -212 -215 -73 -36 -77 -37 -191 -37 -114 0 -118 1
-191 37 -93 46 -168 122 -212 215 -30 64 -32 74 -32 183 0 109 2 119 32 182
54 114 146 197 268 241 38 13 74 17 151 15 93 -3 106 -6 176 -40z"/>
<path d="M456 929 c-205 -34 -359 -244 -326 -445 35 -214 240 -367 448 -334
211 35 365 241 332 446 -36 218 -241 369 -454 333z m10 -144 c3 -8 -8 -50 -25
-95 -21 -55 -29 -86 -23 -97 7 -12 15 -2 33 42 17 42 34 64 61 81 69 44 95 -1
30 -53 -28 -22 -42 -45 -55 -87 -17 -53 -17 -61 -2 -124 9 -37 15 -89 13 -117
-3 -42 -6 -50 -23 -50 -16 0 -22 11 -32 59 -6 32 -15 62 -20 67 -5 5 -29 13
-54 17 -31 5 -45 13 -47 26 -5 25 14 35 55 29 66 -11 30 39 -46 65 -60 20 -83
44 -64 63 10 10 21 10 48 2 34 -11 36 -10 29 10 -4 12 -15 39 -25 59 -22 43
-16 70 14 66 13 -2 25 -16 32 -38 l13 -35 11 28 c6 15 14 40 17 55 4 15 9 30
11 35 7 13 43 8 49 -8z m218 -32 c9 -33 20 -41 31 -23 8 13 42 13 50 0 4 -6
-14 -43 -39 -82 -58 -90 -63 -143 -10 -103 10 8 29 15 42 15 36 0 28 -36 -16
-64 -53 -33 -64 -49 -92 -135 -21 -64 -29 -77 -49 -79 -22 -4 -24 -1 -18 35 3
21 9 48 12 59 5 16 -2 32 -29 62 -42 46 -48 82 -13 82 15 0 29 -11 42 -32 l20
-33 3 34 c3 28 -3 41 -37 75 -23 23 -41 50 -41 59 0 28 29 32 60 9 23 -18 30
-19 39 -8 9 10 7 29 -5 74 -19 69 -14 95 18 90 15 -2 25 -13 32 -35z"/>
</g>
</svg>
