<svg id="Capa_1" enable-background="new 0 0 512 512" height="512" viewBox="0 0 512 512" width="512" xmlns="http://www.w3.org/2000/svg"><g><g><path clip-rule="evenodd" d="m409.582 95.882c-54.376-54.312-142.505-54.312-196.881 0-54.347 54.34-54.347 142.412 0 196.724 47.114 47.055 119.53 53.348 173.395 18.879 7.205-9.524 14.778-14.683 24.763-23.329 8.935-7.71 9.19-17.49 9.19-28.913 0-16.838-13.644-30.444-30.464-30.444s-30.464 13.606-30.464 31.549c0 14.853-11.232 26.05-24.933 26.05-13.729 0-24.961-11.197-24.961-26.05 0-45.468 35.995-81.439 80.358-81.439 23.997 0 45.526 10.516 60.247 27.184 3.347-39.431-10.07-80.023-40.25-110.211z" fill="#99ebfa" fill-rule="evenodd"/></g><g><path clip-rule="evenodd" d="m180.762 63.964c-55.737 55.672-68.331 138.16-37.782 205.936 8.907 19.814 21.501 38.381 37.782 54.652s34.861 28.857 54.659 37.757c40.789 18.34 86.882 21.09 129.259 8.277.425-21.6 3.574-29.707 16.111-51.08 1.759-3.033 3.517-5.669 5.304-8.022-53.865 34.469-126.281 28.176-173.395-18.879-54.347-54.312-54.347-142.384 0-196.724 54.376-54.312 142.505-54.312 196.881 0 30.18 30.189 43.597 70.781 40.25 110.211 12.509 14.145 20.111 32.768 20.111 53.149 0 14.003-1.503 26.617-5.928 38.041 48.504-71.66 41.016-169.88-22.493-233.319-35.939-35.943-83.024-53.914-130.139-53.971h-.482c-47.086.057-94.2 18.028-130.138 53.972z" fill="#33d6f5" fill-rule="evenodd"/></g><g><path clip-rule="evenodd" d="m126.812 286.057c-12.339 12.302-12.594 32.315-.766 44.929.255.283.511.539.766.822l46.689 46.658c.255.255.539.51.794.765 12.651 11.792 32.648 11.537 44.987-.765l16.14-16.157c-19.799-8.901-38.378-21.487-54.659-37.757-16.281-16.271-28.876-34.838-37.782-54.652z" fill="#ffcd69" fill-rule="evenodd"/></g><g><path clip-rule="evenodd" d="m126.046 330.986-47.057 47.027 48.277 48.217 47.029-46.998c-.255-.255-.539-.51-.794-.765l-46.689-46.658c-.256-.284-.511-.539-.766-.823z" fill="#ebddd9" fill-rule="evenodd"/></g><g><path clip-rule="evenodd" d="m78.988 378.013-27.74 27.723 48.277 48.245 27.741-27.751z" fill="#99ebfa" fill-rule="evenodd"/></g><g><path clip-rule="evenodd" d="m51.248 405.736-24.791 24.774c-13.275 13.266-13.275 34.979 0 48.245s35.002 13.266 48.249 0l24.819-24.775z" fill="#ebddd9" fill-rule="evenodd"/></g><g><path clip-rule="evenodd" d="m389.584 452.11c-13.785 0-24.961 11.168-24.961 24.945 0 13.776 11.176 24.945 24.961 24.945s24.961-11.168 24.961-24.945c.001-13.776-11.175-24.945-24.961-24.945z" fill="#ffcd69" fill-rule="evenodd"/></g><g><path clip-rule="evenodd" d="m380.791 319.506c-12.537 21.373-15.686 29.48-16.111 51.08-.028 1.928-.057 3.94-.057 6.094 0 13.72 11.232 24.945 24.961 24.945s24.961-11.225 24.961-24.945c0-15.789.993-17.802 9.304-31.975 4.68-7.994 12.821-12.898 19.657-18.822 9.984-8.646 16.48-18.113 20.508-28.573v-.028c4.425-11.424 5.928-24.038 5.928-38.041 0-20.381-7.602-39.005-20.111-53.149-14.721-16.668-36.25-27.184-60.247-27.184-44.363 0-80.358 35.972-80.358 81.439 0 14.853 11.233 26.05 24.961 26.05 13.7 0 24.933-11.197 24.933-26.05 0-17.943 13.644-31.549 30.464-31.549s30.464 13.606 30.464 30.444c0 11.424-.255 21.203-9.19 28.913-9.984 8.646-17.558 13.805-24.763 23.329-1.786 2.353-3.545 4.989-5.304 8.022z" fill="#ffcd69" fill-rule="evenodd"/></g><g><path d="m389.585 442.11c-19.278 0-34.962 15.676-34.962 34.944 0 19.269 15.683 34.945 34.962 34.945 19.278 0 34.962-15.676 34.962-34.945-.001-19.267-15.684-34.944-34.962-34.944zm0 49.889c-8.249 0-14.961-6.704-14.961-14.945s6.711-14.944 14.961-14.944c8.249 0 14.961 6.703 14.961 14.944s-6.712 14.945-14.961 14.945z"/><path d="m448.592 56.892c-31.249-31.244-70.926-50.464-114.74-55.585-42.487-4.968-85.992 4.332-122.488 26.184-4.739 2.838-6.281 8.979-3.444 13.717 2.837 4.739 8.979 6.278 13.717 3.443 68.653-41.106 156.163-30.255 212.814 26.387 45.982 45.932 61.551 112.462 44.075 172.228-2.709-15.115-9.196-28.934-18.439-40.453 2.434-42.478-13.265-83.824-43.44-114.008-58.174-58.104-152.834-58.108-211.017.005-28.174 28.17-43.691 65.618-43.691 105.444 0 39.827 15.517 77.268 43.695 105.426 24.205 24.176 56.244 39.405 90.214 42.884 5.052.518 10.114.773 15.166.773 17.222 0 34.316-2.995 50.443-8.747-3.854 8.837-5.735 16.912-6.459 28.314-59.796 15.511-123.271-1.561-167.167-45.428-15.083-15.073-26.919-32.319-35.396-50.807-.195-.573-.442-1.131-.744-1.668-22.653-50.808-20.114-110.71 9.98-160.613 2.852-4.73 1.33-10.876-3.4-13.728-4.73-2.854-10.877-1.33-13.728 3.4-22.011 36.501-31.421 80.049-26.494 122.623 2.057 17.775 6.438 34.869 13.002 50.999l-11.308 11.299c-7.981 7.977-12.377 18.613-12.377 29.949 0 7.509 1.939 14.704 5.56 21.028l-41.006 40.981c-.002.002-.005.005-.008.007s-.004.005-.007.008l-27.712 27.694c-.006.006-.013.011-.02.018-.006.006-.011.013-.017.019l-24.768 24.752c-8.311 8.305-12.888 19.384-12.888 31.196s4.577 22.891 12.887 31.196c8.309 8.303 19.391 12.876 31.205 12.876 11.817 0 22.894-4.575 31.183-12.876l24.542-24.526c.093-.086.19-.164.281-.254.088-.088.164-.184.248-.274l68.484-68.441c6.499 3.719 13.776 5.587 21.058 5.587 10.851-.001 21.705-4.13 29.968-12.388l11.359-11.371c23.216 9.468 48.114 14.379 73.325 14.379 14.733 0 29.573-1.684 44.244-5.104 3.158 16.046 17.334 28.189 34.3 28.189 19.278 0 34.962-15.676 34.962-34.945 0-13.394.148-13.647 7.933-26.923 2.507-4.281 6.971-7.801 11.697-11.528 1.929-1.522 3.924-3.094 5.872-4.782 11.428-9.886 18.563-20.661 22.983-31.646 51.174-76.76 40.994-179.549-24.439-244.91zm-321.329 355.202-34.126-34.083 32.88-32.859 34.115 34.093zm-27.752 27.735-34.116-34.093 13.596-13.587 34.126 34.083zm-31.882 31.861c-4.518 4.524-10.568 7.015-17.037 7.015-6.474 0-12.535-2.494-17.066-7.023-4.53-4.527-7.025-10.582-7.025-17.049s2.495-12.522 7.026-17.049l17.721-17.71 34.116 34.093zm144.583-100.298c-8.723 8.721-22.917 8.719-31.642 0l-46.689-46.658c-4.2-4.198-6.514-9.81-6.514-15.802 0-5.991 2.314-11.604 6.514-15.802l6.263-6.259c8.838 16.251 20.072 31.285 33.549 44.753 13.469 13.46 28.597 24.646 44.832 33.448zm7.558-85.86c-24.394-24.379-37.829-56.795-37.829-91.277 0-34.484 13.435-66.909 37.828-91.298 50.382-50.323 132.362-50.324 182.741-.005 21.981 21.986 35.088 50.821 37.439 81.325-14.4-9.7-31.732-15.369-50.363-15.369-24.2 0-46.9 9.457-63.918 26.63-17.051 17.206-26.441 40.222-26.441 64.81 0 20.215 15.357 36.051 34.962 36.051 19.589 0 34.933-15.835 34.933-36.051 0-12.083 8.989-21.549 20.464-21.549 11.284 0 20.463 9.171 20.463 20.444 0 11.406-.541 16.871-5.734 21.351-2.314 2.002-4.506 3.822-6.626 5.583-6.604 5.482-12.57 10.448-18.354 17.74-50.482 31.404-117.332 23.794-159.565-18.385zm217.187 32.794c-1.606 1.392-3.334 2.755-5.165 4.198-5.699 4.493-12.158 9.586-16.569 17.123-9.201 15.69-10.677 19.487-10.677 37.033 0 8.24-6.711 14.945-14.961 14.945-8.249 0-14.961-6.704-14.961-14.945 0-2.118.018-4.088.055-5.951 0-.035.002-.069.002-.104.409-19.951 3.267-26.496 14.738-46.063 6.313-10.768 12.173-15.633 21.045-22.999 2.197-1.825 4.47-3.712 6.928-5.838 12.657-10.922 12.657-25.095 12.657-36.484 0-22.301-18.152-40.445-40.464-40.445-22.691 0-40.465 18.251-40.465 41.55 0 9-6.559 16.05-14.932 16.05-8.389 0-14.961-7.05-14.961-16.05 0-39.392 31.562-71.439 70.358-71.439 38.795 0 70.357 31.552 70.357 70.333 0 27.847-6.658 44.964-22.985 59.086z"/><path d="m180.74 73.971c2.568 0 5.137-.98 7.093-2.936 3.905-3.905 3.905-10.238 0-14.143-3.906-3.904-10.237-3.904-14.143 0l-.028.028c-3.905 3.905-3.891 10.223.015 14.128 1.949 1.95 4.505 2.923 7.063 2.923z"/></g></g></svg>