<?xml version="1.0" standalone="no"?>
<!DOCTYPE svg PUBLIC "-//W3C//DTD SVG 20010904//EN"
 "http://www.w3.org/TR/2001/REC-SVG-20010904/DTD/svg10.dtd">
<svg version="1.0" xmlns="http://www.w3.org/2000/svg"
 width="104.000000pt" height="106.000000pt" viewBox="0 0 104.000000 106.000000"
 preserveAspectRatio="xMidYMid meet">
<metadata>
Created by potrace 1.16, written by Peter Selinger 2001-2019
</metadata>
<g transform="translate(0.000000,106.000000) scale(0.100000,-0.100000)"
fill="#000000" stroke="none">
<path d="M445 1009 c-142 -20 -283 -126 -349 -261 -167 -341 115 -729 492
-677 149 20 288 122 356 261 67 136 67 280 0 416 -92 187 -290 291 -499 261z
m267 -71 c92 -46 167 -122 211 -215 30 -64 32 -74 32 -183 0 -109 -2 -119 -32
-183 -44 -93 -119 -169 -212 -215 -73 -36 -77 -37 -191 -37 -114 0 -118 1
-191 37 -93 46 -168 122 -212 215 -30 64 -32 74 -32 183 0 109 2 119 32 182
54 114 146 197 268 241 38 13 74 17 151 15 93 -3 106 -6 176 -40z"/>
<path d="M456 929 c-205 -34 -359 -244 -326 -445 35 -214 240 -367 448 -334
211 35 365 241 332 446 -36 218 -241 369 -454 333z m302 -145 c46 -32 21 -108
-38 -116 -37 -5 -78 -87 -90 -183 -13 -101 -41 -153 -100 -183 -55 -28 -120
-25 -182 10 -58 32 -80 67 -86 131 -6 80 36 187 74 187 19 0 18 -57 -1 -90
-21 -36 -18 -99 5 -138 36 -59 125 -80 174 -41 36 29 45 48 61 138 15 85 33
136 64 180 12 16 18 36 14 49 -3 14 3 29 21 46 29 30 52 33 84 10z"/>
</g>
</svg>
